<?xml version="1.0" encoding="UTF-8" standalone="no"?>
<!-- Created with Inkscape (http://www.inkscape.org/) -->

<svg
   width="80mm"
   height="80mm"
   viewBox="0 0 302.36221 302.36221"
   version="1.1"
   id="svg1"
   xml:space="preserve"
   sodipodi:docname="icon.svg"
   inkscape:version="1.4.3 (0d15f75, 2025-12-25)"
   xmlns:inkscape="http://www.inkscape.org/namespaces/inkscape"
   xmlns:sodipodi="http://sodipodi.sourceforge.net/DTD/sodipodi-0.dtd"
   xmlns:xlink="http://www.w3.org/1999/xlink"
   xmlns="http://www.w3.org/2000/svg"
   xmlns:svg="http://www.w3.org/2000/svg"><sodipodi:namedview
     id="namedview1"
     pagecolor="#ffffff"
     bordercolor="#000000"
     borderopacity="0.25"
     inkscape:showpageshadow="2"
     inkscape:pageopacity="0.0"
     inkscape:pagecheckerboard="0"
     inkscape:deskcolor="#d1d1d1"
     inkscape:document-units="mm"
     inkscape:zoom="2.6973278"
     inkscape:cx="181.66127"
     inkscape:cy="124.38236"
     inkscape:window-width="1710"
     inkscape:window-height="958"
     inkscape:window-x="0"
     inkscape:window-y="39"
     inkscape:window-maximized="0"
     inkscape:current-layer="layer1" /><defs
     id="defs1"><linearGradient
       id="linearGradient36"><stop
         style="stop-color:#003869;stop-opacity:1;"
         offset="0"
         id="stop36" /><stop
         style="stop-color:#3172a6;stop-opacity:1;"
         offset="1"
         id="stop37" /></linearGradient><linearGradient
       id="linearGradient18"><stop
         style="stop-color:#0082fc;stop-opacity:1;"
         offset="0"
         id="stop18" /><stop
         style="stop-color:#003d73;stop-opacity:1;"
         offset="1"
         id="stop19" /></linearGradient><radialGradient
       xlink:href="#linearGradient18"
       id="radialGradient19"
       cx="-1086.6738"
       cy="239.3649"
       fx="-1086.6738"
       fy="239.3649"
       r="170.99529"
       gradientTransform="matrix(-1.3165954,0.56708044,-0.33773752,-0.77433872,-1174.1208,871.64011)"
       gradientUnits="userSpaceOnUse" /><linearGradient
       xlink:href="#linearGradient36"
       id="linearGradient37"
       x1="475.59543"
       y1="585.02716"
       x2="475.59543"
       y2="621.15131"
       gradientUnits="userSpaceOnUse"
       gradientTransform="matrix(0.44293045,0,0,0.4401547,-62.595536,-6.4219032)" /></defs><g
     id="layer1"><path
       style="display:inline;fill:url(#radialGradient19);fill-opacity:1;stroke-width:0.44154"
       d="m 208.25132,224.53474 c 1.92631,-9.58996 7.07667,-17.58917 24.90076,-38.67432 2.73233,-3.23224 6.46319,-7.95653 8.29079,-10.49842 6.23693,-8.67457 11.02228,-19.44361 12.22421,-27.50967 0.84573,-5.67565 0.69864,-5.57294 3.99775,-2.79142 3.81475,3.21625 7.91089,8.13944 10.36577,12.4587 l 2.01047,3.53736 2e-5,-1.82204 c 10e-5,-7.34157 -4.39883,-19.39856 -10.46151,-28.67382 -1.31089,-2.00553 -2.38391,-3.78816 -2.38448,-3.9614 -4.4e-4,-0.17323 1.70986,-0.25044 3.80093,-0.17157 5.35898,0.20212 5.71899,-0.07 2.57769,-1.94817 -6.27449,-3.75154 -13.40255,-10.71782 -17.93638,-17.52929 -2.7647,-4.15359 -3.0951,-4.9484 -1.83985,-4.4259 0.91435,0.38061 7.96402,0.86731 7.64055,0.5275 -0.1218,-0.12796 -1.41737,-1.10726 -2.87905,-2.17624 -6.04062,-4.417746 -11.10062,-12.246245 -14.38386,-22.253801 -3.76556,-11.477676 -8.61804,-20.576598 -16.59912,-31.125183 -5.16674,-6.828885 -16.05179,-17.772206 -16.80557,-16.895542 -0.28559,0.332156 -10.58717,24.407597 -12.02415,28.101203 -0.80445,2.067777 -1.62546,3.660564 -1.82446,3.539522 -0.199,-0.121043 -1.4771,-1.50753 -2.84023,-3.081083 -4.68736,-5.410967 -12.42058,-11.630459 -20.11789,-16.179928 -4.83449,-2.857419 -9.48138,-5.139986 -9.80644,-4.816965 -0.0929,0.0923 0.75128,2.328977 1.87592,4.970385 4.07383,9.568017 7.21472,19.893786 8.58571,28.22566 l 0.5226,3.175984 -5.34651,5.122371 c -7.66736,7.345927 -8.5465,8.805207 -11.32879,18.804496 -0.46051,1.655031 -1.28564,3.188301 -2.35257,4.371601 -3.08809,3.4249 -16.76248,11.56335 -25.00787,14.88368 -1.94965,0.7851 -2.54588,1.23882 -2.5427,1.93494 0.006,1.33455 2.30985,5.06063 4.32268,6.99149 l 1.75192,1.68058 1.39926,-1.75563 c 0.76959,-0.9656 1.78517,-2.62259 2.25685,-3.68221 l 0.85759,-1.92658 5.00191,-1.43574 c 5.79271,-1.66273 5.71216,-1.67502 12.98375,1.98137 l 3.99548,2.00905 5.85973,-2.24676 c 3.22285,-1.23572 8.5007,-3.26025 11.72855,-4.49895 7.51397,-2.88353 13.32748,-4.35013 17.24365,-4.35013 15.61683,0 28.90907,12.6214 30.35374,28.82183 0.31131,3.49104 0.73802,3.47639 -3.68336,0.12639 -1.19231,-0.90339 -3.72246,-2.45357 -5.62255,-3.44486 -3.38318,-1.765 -9.58567,-4.10839 -9.94059,-3.75569 -0.0986,0.098 0.43471,1.02052 1.18519,2.05003 1.41728,1.94425 1.49356,2.81453 0.14298,1.63128 -0.42782,-0.3748 -2.01495,-1.29643 -3.52697,-2.04806 -9.32597,-4.63597 -18.8993,-5.35889 -37.33608,-2.81939 -9.18573,1.26524 -20.17552,0.84058 -26.68656,-1.03121 -2.86594,-0.8239 3.08631,3.66512 7.45243,5.62041 2.09093,0.93639 2.73184,0.97823 15.46922,1.01003 12.66303,0.0316 13.41122,0.0797 15.9101,1.02321 7.98627,3.0153 11.75968,7.50254 11.76872,13.99507 0.005,3.90419 -1.00296,6.94134 -4.6409,13.97763 -2.46581,4.76924 -5.09924,11.07566 -5.09924,12.21145 0,0.22667 1.23576,-0.57741 2.74613,-1.78685 1.51037,-1.20945 2.85577,-2.19887 2.98978,-2.19872 0.13401,1.5e-4 0.2471,2.82264 0.25132,6.2722 0.009,7.40673 0.80612,10.80913 4.035,17.22393 2.91339,5.788 6.23213,10.13091 12.0768,15.80372 4.70303,4.56474 7.09511,6.4493 12.30683,9.69575 l 1.85048,1.15269 z m -47.31002,-122.95069 2.53973,-3.353192 2.27497,0.233326 c 2.65304,0.2721 8.81568,2.015976 8.44077,2.388526 -0.78874,0.78381 -12.08756,3.81565 -15.00953,4.02756 -0.578,0.0419 -0.11436,-0.82936 1.75406,-3.29622 z m 45.82435,-17.490397 -2.78986,-2.797249 0.52371,-1.934414 c 0.83319,-3.077575 1.67243,-4.420337 4.30104,-6.881581 l 2.46306,-2.306235 -0.26432,-3.722023 c -0.16821,-2.368604 -0.75141,-5.166773 -1.60385,-7.695185 -1.41148,-4.18658 -3.80709,-9.279213 -4.365,-9.279213 -0.83109,0 -1.94691,8.804903 -2.41248,19.03669 -0.27263,5.991606 -0.64902,10.893829 -0.83643,10.893829 -0.18741,0 -1.29963,-0.825448 -2.4716,-1.834323 -1.17197,-1.008878 -3.47626,-2.807399 -5.12064,-3.99671 -2.02089,-1.461626 -2.98978,-2.456499 -2.98978,-3.06996 0,-1.340817 1.63514,-6.589129 3.53495,-11.346123 2.16577,-5.422939 8.39968,-19.482392 8.84265,-19.942961 0.41286,-0.429282 5.03155,6.571514 7.30287,11.069381 0.89728,1.776873 2.35249,5.342126 3.23379,7.922784 1.42209,4.16422 1.62361,5.311105 1.79111,10.194045 0.20873,6.084593 -0.38008,9.343898 -2.41955,13.393291 -1.23854,2.459131 -3.10417,5.093206 -3.60734,5.093206 -0.17735,0 -1.5779,-1.258763 -3.11233,-2.797249 z"
       id="path1" /><path
       d="m 58.750886,181.67243 c -1.685842,-1.31008 -7.355183,-12.38746 -9.592678,-18.74321 -2.335767,-6.63492 -5.192194,-22.02661 -5.384333,-29.01311 -0.59393,-21.59711 5.710069,-41.22293 19.137271,-59.578794 6.589897,-9.008805 16.34924,-19.034327 20.058907,-20.605983 2.478559,-1.050086 5.194418,-0.546457 6.341506,1.175974 1.892593,2.841833 1.016539,4.725373 -4.467166,9.604568 -21.175039,18.840782 -31.937429,43.956195 -30.689473,71.617865 0.506407,11.22484 4.054794,24.0618 9.48796,34.32452 1.37754,2.60203 2.643626,5.58892 2.813521,6.63752 0.660081,4.07407 -4.449055,7.11126 -7.705515,4.58065 z m 19.778266,-15.36815 c -4.11811,-3.22925 -8.98262,-16.77737 -10.280437,-28.63198 -1.906918,-17.41822 2.640428,-33.83356 13.442128,-48.524426 5.443137,-7.402961 13.99872,-15.660096 16.660196,-16.079044 1.940811,-0.305503 5.519481,2.081852 5.804921,3.872494 0.33304,2.089295 -1.20504,4.37332 -4.916159,7.300481 -8.220103,6.483641 -17.096496,21.296375 -19.574187,32.665005 -2.759412,12.66128 -1.547094,26.84447 3.176755,37.16528 3.662242,8.0014 3.763066,8.45096 2.427986,10.82604 -1.498053,2.66503 -4.371458,3.26439 -6.741203,1.40615 z m 19.374031,-14.62693 c -2.04028,-1.473 -3.592574,-5.38265 -5.17178,-13.0258 -2.267445,-10.97406 -0.862749,-20.31684 4.573394,-30.41811 2.466299,-4.5828 8.082533,-10.892971 11.968193,-13.446973 2.43427,-1.600019 5.18721,-1.155406 6.86348,1.108495 1.90623,2.574473 1.10303,5.263038 -2.32059,7.767698 -1.39259,1.0188 -3.86737,3.67121 -5.4995,5.89427 -7.01284,9.55184 -8.64889,23.19421 -4.02476,33.5608 1.65255,3.70478 1.70341,5.05713 0.27663,7.35671 -1.062,1.71166 -4.980758,2.41892 -6.665067,1.20291 z"
       style="display:inline;fill:#0082fc;fill-opacity:1;stroke-width:0.704425"
       id="path1-3" /></g></svg>
