<?xml version="1.0" encoding="UTF-8" standalone="no"?>
<!-- Created with Inkscape (http://www.inkscape.org/) -->

<svg
   width="54.569866mm"
   height="26.988853mm"
   viewBox="0 0 54.569866 26.988853"
   version="1.1"
   id="svg1"
   xmlns="http://www.w3.org/2000/svg"
   xmlns:svg="http://www.w3.org/2000/svg">
  <defs
     id="defs1" />
  <g
     id="layer1"
     transform="translate(-12.485598,-5.3438486)">
    <g
       id="text2-0-5"
       style="font-size:96px;font-family:'.Al Bayan PUA';-inkscape-font-specification:'.Al Bayan PUA';fill:#04050a;stroke-width:2;stroke-dashoffset:0.982677"
       aria-label="bfox"
       transform="matrix(0.26458333,0,0,0.26458333,-99.804751,-105.25063)">
      <path
         style="font-family:'DIN Condensed';-inkscape-font-specification:'DIN Condensed, ';fill:none;stroke:#007eff"
         d="m 425.40448,518.10999 v -68.352 h 14.304 c 3.136,0 5.792,0.48 7.968,1.44 2.24,0.96 4.064,2.24 5.472,3.84 1.408,1.6 2.4,3.456 2.976,5.568 0.64,2.048 0.96,4.192 0.96,6.432 v 2.496 c 0,1.856 -0.16,3.424 -0.48,4.704 -0.256,1.28 -0.672,2.4 -1.248,3.36 -1.088,1.792 -2.752,3.328 -4.992,4.608 2.304,1.088 4,2.688 5.088,4.8 1.088,2.112 1.632,4.992 1.632,8.64 v 3.84 c 0,6.016 -1.472,10.624 -4.416,13.824 -2.88,3.2 -7.52,4.8 -13.92,4.8 z m 9.792,-31.68 v 21.888 h 4.224 c 1.984,0 3.52,-0.288 4.608,-0.864 1.152,-0.576 2.016,-1.376 2.592,-2.4 0.576,-1.024 0.928,-2.24 1.056,-3.648 0.128,-1.408 0.192,-2.944 0.192,-4.608 0,-1.728 -0.096,-3.232 -0.288,-4.512 -0.192,-1.28 -0.576,-2.368 -1.152,-3.264 -0.64,-0.896 -1.504,-1.536 -2.592,-1.92 -1.088,-0.448 -2.528,-0.672 -4.32,-0.672 z m 0,-27.456 v 18.816 h 4.416 c 3.264,0 5.44,-0.8 6.528,-2.4 1.152,-1.664 1.728,-4.064 1.728,-7.2 0,-3.072 -0.64,-5.376 -1.92,-6.912 -1.216,-1.536 -3.456,-2.304 -6.72,-2.304 z M 465.14854,444.758 h 9.792 V 519 h -9.792 z m 46.75207,52.71199 h -19.392 v 6.624 c 0,1.536 0.416,2.72 1.248,3.552 0.896,0.832 2.08,1.248 3.552,1.248 1.856,0 3.072,-0.544 3.648,-1.632 0.64,-1.088 1.024,-2.176 1.152,-3.264 h 9.792 c 0,4.288 -1.312,7.744 -3.936,10.368 -1.28,1.344 -2.816,2.4 -4.608,3.168 -1.792,0.768 -3.808,1.152 -6.048,1.152 -3.072,0 -5.696,-0.64 -7.872,-1.92 -2.112,-1.28 -3.744,-2.976 -4.896,-5.088 -0.704,-1.28 -1.184,-2.752 -1.44,-4.416 -0.256,-1.664 -0.384,-3.488 -0.384,-5.472 v -16.032 c 0,-1.984 0.128,-3.808 0.384,-5.472 0.256,-1.664 0.736,-3.136 1.44,-4.416 1.152,-2.112 2.784,-3.808 4.896,-5.088 2.176,-1.28 4.8,-1.92 7.872,-1.92 2.24,0 4.256,0.384 6.048,1.152 1.856,0.768 3.424,1.824 4.704,3.168 2.56,2.88 3.84,6.496 3.84,10.848 z m -19.392,-7.68 h 9.6 v -5.568 c 0,-1.856 -0.448,-3.232 -1.344,-4.128 -0.832,-0.96 -1.984,-1.44 -3.456,-1.44 -1.472,0 -2.656,0.48 -3.552,1.44 -0.832,0.896 -1.248,2.272 -1.248,4.128 z"
         id="path2" />
      <path
         style="font-family:'DIN Condensed';-inkscape-font-specification:'DIN Condensed, '"
         d="m 529.4687,458.97399 v 21.312 h 5.568 q 2.592,0 4.128,-0.672 1.536,-0.768 2.4,-2.112 0.768,-1.344 1.056,-3.264 0.288,-2.016 0.288,-4.608 0,-2.592 -0.288,-4.512 -0.288,-2.016 -1.152,-3.456 -1.824,-2.688 -6.912,-2.688 z m -9.792,59.136 v -68.352 h 15.744 q 17.28,0 17.28,20.064 0,6.048 -1.92,10.272 -1.824,4.224 -6.528,6.816 l 10.56,31.2 h -10.368 l -9.12,-29.184 h -5.856 v 29.184 z m 40.89605,0 v -68.352 h 14.496 q 8.448,0 12.768,4.608 4.416,4.608 4.416,13.056 v 31.968 q 0,9.6 -4.704,14.208 -4.608,4.512 -13.344,4.512 z m 9.792,-59.136 v 49.92 h 4.512 q 4.128,0 5.856,-2.016 1.728,-2.112 1.728,-6.528 v -32.928 q 0,-4.032 -1.632,-6.24 -1.632,-2.208 -5.952,-2.208 z m 31.10406,59.136 v -68.352 h 29.184 v 9.216 h -19.392 v 20.736 h 16.896 v 9.216 h -16.896 v 29.184 z"
         id="path3" />
    </g>
    <path
       style="fill:none;fill-opacity:1;stroke:#0783ff;stroke-width:0.529167;stroke-dasharray:none;stroke-dashoffset:0.982677;stroke-opacity:1"
       d="m 21.328514,13.588088 c 0,-4.7057702 6.62829,-4.8750002 6.62829,0"
       id="path6" />
    <path
       style="fill:none;fill-opacity:1;stroke:#0783ff;stroke-width:0.396875;stroke-dasharray:none;stroke-dashoffset:0.982677;stroke-opacity:1"
       d="m 19.671444,13.085678 c 0,-7.0586602 9.94243,-7.3124902 9.94243,0"
       id="path6-0" />
    <path
       style="fill:none;fill-opacity:1;stroke:#0783ff;stroke-width:0.264583;stroke-dasharray:none;stroke-dashoffset:0.982677;stroke-opacity:1"
       d="m 18.180075,12.482628 c 0,-9.1762602 12.925159,-9.5062502 12.925159,0"
       id="path6-0-0" />
  </g>
</svg>
