<?xml version="1.0" encoding="UTF-8" standalone="no"?>
<!-- Created with Inkscape (http://www.inkscape.org/) -->

<svg
   width="80mm"
   height="80mm"
   viewBox="0 0 302.36221 302.36221"
   version="1.1"
   id="svg1"
   xml:space="preserve"
   inkscape:version="1.4.2 (ebf0e940, 2025-05-08)"
   sodipodi:docname="logo.inkscape.svg"
   inkscape:export-filename="logo.png"
   inkscape:export-xdpi="96"
   inkscape:export-ydpi="96"
   xmlns:inkscape="http://www.inkscape.org/namespaces/inkscape"
   xmlns:sodipodi="http://sodipodi.sourceforge.net/DTD/sodipodi-0.dtd"
   xmlns:xlink="http://www.w3.org/1999/xlink"
   xmlns="http://www.w3.org/2000/svg"
   xmlns:svg="http://www.w3.org/2000/svg"><sodipodi:namedview
     id="namedview1"
     pagecolor="#ffffff"
     bordercolor="#000000"
     borderopacity="0.25"
     inkscape:showpageshadow="2"
     inkscape:pageopacity="0.0"
     inkscape:pagecheckerboard="0"
     inkscape:deskcolor="#d1d1d1"
     inkscape:document-units="mm"
     inkscape:zoom="1.4283787"
     inkscape:cx="74.910108"
     inkscape:cy="119.36611"
     inkscape:window-width="1576"
     inkscape:window-height="778"
     inkscape:window-x="0"
     inkscape:window-y="25"
     inkscape:window-maximized="0"
     inkscape:current-layer="layer1" /><defs
     id="defs1"><linearGradient
       id="linearGradient36"
       inkscape:collect="always"><stop
         style="stop-color:#003869;stop-opacity:1;"
         offset="0"
         id="stop36" /><stop
         style="stop-color:#3172a6;stop-opacity:1;"
         offset="1"
         id="stop37" /></linearGradient><linearGradient
       id="linearGradient18"
       inkscape:collect="always"><stop
         style="stop-color:#0082fc;stop-opacity:1;"
         offset="0"
         id="stop18" /><stop
         style="stop-color:#003d73;stop-opacity:1;"
         offset="1"
         id="stop19" /></linearGradient><rect
       x="325.69183"
       y="576.37012"
       width="456.72821"
       height="72.164955"
       id="rect16" /><rect
       x="325.69183"
       y="576.37012"
       width="456.72821"
       height="72.164955"
       id="rect17" /><radialGradient
       inkscape:collect="always"
       xlink:href="#linearGradient18"
       id="radialGradient19"
       cx="-1086.6738"
       cy="239.3649"
       fx="-1086.6738"
       fy="239.3649"
       r="170.99529"
       gradientTransform="matrix(-1.3165954,0.56708044,-0.33773752,-0.77433872,-1174.1208,871.64011)"
       gradientUnits="userSpaceOnUse" /><filter
       inkscape:label="Cross Noise Poster"
       style="color-interpolation-filters:sRGB"
       inkscape:menu-tooltip="Overlay with a small scale screen like noise"
       inkscape:menu="Image Paint and Draw"
       id="filter31"
       x="-0.027544651"
       y="-0.085790887"
       width="1.0550894"
       height="1.1715817"><feGaussianBlur
         in="SourceGraphic"
         stdDeviation="4"
         result="result3"
         id="feGaussianBlur29" /><feGaussianBlur
         result="result4"
         in="SourceGraphic"
         stdDeviation="1"
         id="feGaussianBlur30" /><feBlend
         mode="darken"
         in2="result3"
         id="feBlend30" /><feComponentTransfer
         result="result1"
         id="feComponentTransfer30"><feFuncR
           type="discrete"
           tableValues="0 0.2 0.4 0.6 0.8 1 1"
           id="feFuncR30" /><feFuncG
           type="discrete"
           tableValues="0 0.2 0.4 0.6 0.8 1 1"
           id="feFuncG30" /><feFuncB
           type="discrete"
           tableValues="0 0.2 0.4 0.6 0.8 1 1"
           id="feFuncB30" /></feComponentTransfer><feTurbulence
         result="result0"
         seed="0"
         baseFrequency="1"
         numOctaves="7"
         type="fractalNoise"
         id="feTurbulence30" /><feConvolveMatrix
         result="result5"
         order="3 3"
         kernelMatrix="-2 0 -2 0 -10 0 -2 0 -2 "
         id="feConvolveMatrix30" /><feColorMatrix
         in="result5"
         type="saturate"
         values="0"
         result="result4"
         id="feColorMatrix30" /><feComposite
         result="result2"
         k3="0.5"
         k2="0.5"
         k1="1.5"
         operator="arithmetic"
         in="result1"
         in2="result4"
         id="feComposite30"
         k4="0" /><feComposite
         in2="SourceGraphic"
         operator="in"
         id="feComposite31" /></filter><filter
       inkscape:label="Cross Noise Poster"
       style="color-interpolation-filters:sRGB"
       inkscape:menu-tooltip="Overlay with a small scale screen like noise"
       inkscape:menu="Image Paint and Draw"
       id="filter33"
       x="-0.035088684"
       y="-0.027031161"
       width="1.0701774"
       height="1.0540622"><feGaussianBlur
         in="SourceGraphic"
         stdDeviation="4"
         result="result3"
         id="feGaussianBlur31" /><feGaussianBlur
         result="result4"
         in="SourceGraphic"
         stdDeviation="1"
         id="feGaussianBlur32" /><feBlend
         mode="darken"
         in2="result3"
         id="feBlend32" /><feComponentTransfer
         result="result1"
         id="feComponentTransfer32"><feFuncR
           type="discrete"
           tableValues="0 0.2 0.4 0.6 0.8 1 1"
           id="feFuncR32" /><feFuncG
           type="discrete"
           tableValues="0 0.2 0.4 0.6 0.8 1 1"
           id="feFuncG32" /><feFuncB
           type="discrete"
           tableValues="0 0.2 0.4 0.6 0.8 1 1"
           id="feFuncB32" /></feComponentTransfer><feTurbulence
         result="result0"
         seed="0"
         baseFrequency="1"
         numOctaves="7"
         type="fractalNoise"
         id="feTurbulence32" /><feConvolveMatrix
         result="result5"
         order="3 3"
         kernelMatrix="-2 0 -2 0 -10 0 -2 0 -2 "
         id="feConvolveMatrix32" /><feColorMatrix
         in="result5"
         type="saturate"
         values="0"
         result="result4"
         id="feColorMatrix32" /><feComposite
         result="result2"
         k3="0.5"
         k2="0.5"
         k1="1.5"
         operator="arithmetic"
         in="result1"
         in2="result4"
         id="feComposite32"
         k4="0" /><feComposite
         in2="SourceGraphic"
         operator="in"
         id="feComposite33" /></filter><filter
       inkscape:label="Cross Noise Poster"
       style="color-interpolation-filters:sRGB"
       inkscape:menu-tooltip="Overlay with a small scale screen like noise"
       inkscape:menu="Image Paint and Draw"
       id="filter35"
       x="-0.072403148"
       y="-0.040814269"
       width="1.1448063"
       height="1.0816284"><feGaussianBlur
         in="SourceGraphic"
         stdDeviation="4"
         result="result3"
         id="feGaussianBlur33" /><feGaussianBlur
         result="result4"
         in="SourceGraphic"
         stdDeviation="1"
         id="feGaussianBlur34" /><feBlend
         mode="darken"
         in2="result3"
         id="feBlend34" /><feComponentTransfer
         result="result1"
         id="feComponentTransfer34"><feFuncR
           type="discrete"
           tableValues="0 0.2 0.4 0.6 0.8 1 1"
           id="feFuncR34" /><feFuncG
           type="discrete"
           tableValues="0 0.2 0.4 0.6 0.8 1 1"
           id="feFuncG34" /><feFuncB
           type="discrete"
           tableValues="0 0.2 0.4 0.6 0.8 1 1"
           id="feFuncB34" /></feComponentTransfer><feTurbulence
         result="result0"
         seed="0"
         baseFrequency="1"
         numOctaves="7"
         type="fractalNoise"
         id="feTurbulence34" /><feConvolveMatrix
         result="result5"
         order="3 3"
         kernelMatrix="-2 0 -2 0 -10 0 -2 0 -2 "
         id="feConvolveMatrix34" /><feColorMatrix
         in="result5"
         type="saturate"
         values="0"
         result="result4"
         id="feColorMatrix34" /><feComposite
         result="result2"
         k3="0.5"
         k2="0.5"
         k1="1.5"
         operator="arithmetic"
         in="result1"
         in2="result4"
         id="feComposite34"
         k4="0" /><feComposite
         in2="SourceGraphic"
         operator="in"
         id="feComposite35" /></filter><linearGradient
       inkscape:collect="always"
       xlink:href="#linearGradient36"
       id="linearGradient37"
       x1="475.59543"
       y1="585.02716"
       x2="475.59543"
       y2="621.15131"
       gradientUnits="userSpaceOnUse"
       gradientTransform="matrix(0.44293045,0,0,0.4401547,-62.595536,-6.4219032)" /></defs><g
     inkscape:label="Layer 1"
     inkscape:groupmode="layer"
     id="layer1"><path
       style="display:inline;fill:url(#radialGradient19);fill-opacity:1;stroke-width:0.44154"
       d="m 208.25132,224.53474 c 1.92631,-9.58996 7.07667,-17.58917 24.90076,-38.67432 2.73233,-3.23224 6.46319,-7.95653 8.29079,-10.49842 6.23693,-8.67457 11.02228,-19.44361 12.22421,-27.50967 0.84573,-5.67565 0.69864,-5.57294 3.99775,-2.79142 3.81475,3.21625 7.91089,8.13944 10.36577,12.4587 l 2.01047,3.53736 2e-5,-1.82204 c 10e-5,-7.34157 -4.39883,-19.39856 -10.46151,-28.67382 -1.31089,-2.00553 -2.38391,-3.78816 -2.38448,-3.9614 -4.4e-4,-0.17323 1.70986,-0.25044 3.80093,-0.17157 5.35898,0.20212 5.71899,-0.07 2.57769,-1.94817 -6.27449,-3.75154 -13.40255,-10.71782 -17.93638,-17.52929 -2.7647,-4.15359 -3.0951,-4.9484 -1.83985,-4.4259 0.91435,0.38061 7.96402,0.86731 7.64055,0.5275 -0.1218,-0.12796 -1.41737,-1.10726 -2.87905,-2.17624 -6.04062,-4.417746 -11.10062,-12.246245 -14.38386,-22.253801 -3.76556,-11.477676 -8.61804,-20.576598 -16.59912,-31.125183 -5.16674,-6.828885 -16.05179,-17.772206 -16.80557,-16.895542 -0.28559,0.332156 -10.58717,24.407597 -12.02415,28.101203 -0.80445,2.067777 -1.62546,3.660564 -1.82446,3.539522 -0.199,-0.121043 -1.4771,-1.50753 -2.84023,-3.081083 -4.68736,-5.410967 -12.42058,-11.630459 -20.11789,-16.179928 -4.83449,-2.857419 -9.48138,-5.139986 -9.80644,-4.816965 -0.0929,0.0923 0.75128,2.328977 1.87592,4.970385 4.07383,9.568017 7.21472,19.893786 8.58571,28.22566 l 0.5226,3.175984 -5.34651,5.122371 c -7.66736,7.345927 -8.5465,8.805207 -11.32879,18.804496 -0.46051,1.655031 -1.28564,3.188301 -2.35257,4.371601 -3.08809,3.4249 -16.76248,11.56335 -25.00787,14.88368 -1.94965,0.7851 -2.54588,1.23882 -2.5427,1.93494 0.006,1.33455 2.30985,5.06063 4.32268,6.99149 l 1.75192,1.68058 1.39926,-1.75563 c 0.76959,-0.9656 1.78517,-2.62259 2.25685,-3.68221 l 0.85759,-1.92658 5.00191,-1.43574 c 5.79271,-1.66273 5.71216,-1.67502 12.98375,1.98137 l 3.99548,2.00905 5.85973,-2.24676 c 3.22285,-1.23572 8.5007,-3.26025 11.72855,-4.49895 7.51397,-2.88353 13.32748,-4.35013 17.24365,-4.35013 15.61683,0 28.90907,12.6214 30.35374,28.82183 0.31131,3.49104 0.73802,3.47639 -3.68336,0.12639 -1.19231,-0.90339 -3.72246,-2.45357 -5.62255,-3.44486 -3.38318,-1.765 -9.58567,-4.10839 -9.94059,-3.75569 -0.0986,0.098 0.43471,1.02052 1.18519,2.05003 1.41728,1.94425 1.49356,2.81453 0.14298,1.63128 -0.42782,-0.3748 -2.01495,-1.29643 -3.52697,-2.04806 -9.32597,-4.63597 -18.8993,-5.35889 -37.33608,-2.81939 -9.18573,1.26524 -20.17552,0.84058 -26.68656,-1.03121 -2.86594,-0.8239 3.08631,3.66512 7.45243,5.62041 2.09093,0.93639 2.73184,0.97823 15.46922,1.01003 12.66303,0.0316 13.41122,0.0797 15.9101,1.02321 7.98627,3.0153 11.75968,7.50254 11.76872,13.99507 0.005,3.90419 -1.00296,6.94134 -4.6409,13.97763 -2.46581,4.76924 -5.09924,11.07566 -5.09924,12.21145 0,0.22667 1.23576,-0.57741 2.74613,-1.78685 1.51037,-1.20945 2.85577,-2.19887 2.98978,-2.19872 0.13401,1.5e-4 0.2471,2.82264 0.25132,6.2722 0.009,7.40673 0.80612,10.80913 4.035,17.22393 2.91339,5.788 6.23213,10.13091 12.0768,15.80372 4.70303,4.56474 7.09511,6.4493 12.30683,9.69575 l 1.85048,1.15269 z m -47.31002,-122.95069 2.53973,-3.353192 2.27497,0.233326 c 2.65304,0.2721 8.81568,2.015976 8.44077,2.388526 -0.78874,0.78381 -12.08756,3.81565 -15.00953,4.02756 -0.578,0.0419 -0.11436,-0.82936 1.75406,-3.29622 z m 45.82435,-17.490397 -2.78986,-2.797249 0.52371,-1.934414 c 0.83319,-3.077575 1.67243,-4.420337 4.30104,-6.881581 l 2.46306,-2.306235 -0.26432,-3.722023 c -0.16821,-2.368604 -0.75141,-5.166773 -1.60385,-7.695185 -1.41148,-4.18658 -3.80709,-9.279213 -4.365,-9.279213 -0.83109,0 -1.94691,8.804903 -2.41248,19.03669 -0.27263,5.991606 -0.64902,10.893829 -0.83643,10.893829 -0.18741,0 -1.29963,-0.825448 -2.4716,-1.834323 -1.17197,-1.008878 -3.47626,-2.807399 -5.12064,-3.99671 -2.02089,-1.461626 -2.98978,-2.456499 -2.98978,-3.06996 0,-1.340817 1.63514,-6.589129 3.53495,-11.346123 2.16577,-5.422939 8.39968,-19.482392 8.84265,-19.942961 0.41286,-0.429282 5.03155,6.571514 7.30287,11.069381 0.89728,1.776873 2.35249,5.342126 3.23379,7.922784 1.42209,4.16422 1.62361,5.311105 1.79111,10.194045 0.20873,6.084593 -0.38008,9.343898 -2.41955,13.393291 -1.23854,2.459131 -3.10417,5.093206 -3.60734,5.093206 -0.17735,0 -1.5779,-1.258763 -3.11233,-2.797249 z"
       id="path1"
       sodipodi:nodetypes="sssssscsscsssssssssssssssscsssssscsscsscsssssssssssssssssssssssscsscssssscsscssssssssssssssss" /><path
       d="m 58.750886,181.67243 c -1.685842,-1.31008 -7.355183,-12.38746 -9.592678,-18.74321 -2.335767,-6.63492 -5.192194,-22.02661 -5.384333,-29.01311 -0.59393,-21.59711 5.710069,-41.22293 19.137271,-59.578794 6.589897,-9.008805 16.34924,-19.034327 20.058907,-20.605983 2.478559,-1.050086 5.194418,-0.546457 6.341506,1.175974 1.892593,2.841833 1.016539,4.725373 -4.467166,9.604568 -21.175039,18.840782 -31.937429,43.956195 -30.689473,71.617865 0.506407,11.22484 4.054794,24.0618 9.48796,34.32452 1.37754,2.60203 2.643626,5.58892 2.813521,6.63752 0.660081,4.07407 -4.449055,7.11126 -7.705515,4.58065 z m 19.778266,-15.36815 c -4.11811,-3.22925 -8.98262,-16.77737 -10.280437,-28.63198 -1.906918,-17.41822 2.640428,-33.83356 13.442128,-48.524426 5.443137,-7.402961 13.99872,-15.660096 16.660196,-16.079044 1.940811,-0.305503 5.519481,2.081852 5.804921,3.872494 0.33304,2.089295 -1.20504,4.37332 -4.916159,7.300481 -8.220103,6.483641 -17.096496,21.296375 -19.574187,32.665005 -2.759412,12.66128 -1.547094,26.84447 3.176755,37.16528 3.662242,8.0014 3.763066,8.45096 2.427986,10.82604 -1.498053,2.66503 -4.371458,3.26439 -6.741203,1.40615 z m 19.374031,-14.62693 c -2.04028,-1.473 -3.592574,-5.38265 -5.17178,-13.0258 -2.267445,-10.97406 -0.862749,-20.31684 4.573394,-30.41811 2.466299,-4.5828 8.082533,-10.892971 11.968193,-13.446973 2.43427,-1.600019 5.18721,-1.155406 6.86348,1.108495 1.90623,2.574473 1.10303,5.263038 -2.32059,7.767698 -1.39259,1.0188 -3.86737,3.67121 -5.4995,5.89427 -7.01284,9.55184 -8.64889,23.19421 -4.02476,33.5608 1.65255,3.70478 1.70341,5.05713 0.27663,7.35671 -1.062,1.71166 -4.980758,2.41892 -6.665067,1.20291 z"
       style="display:inline;fill:#0082fc;fill-opacity:1;stroke-width:0.704425"
       id="path1-3" /><path
       id="text18"
       style="font-size:192px;font-family:Mellow;-inkscape-font-specification:Mellow;fill:url(#linearGradient37);fill-opacity:1;stroke-width:0.725932"
       inkscape:label="B-Fox Text"
       d="m 72.142698,207.61278 c -9.080075,0 -14.589022,0.75652 -16.526843,2.26955 -0.553663,0.55019 -0.830494,1.38924 -0.830494,2.51714 v 51.41557 l 0.124574,1.77437 c 0.08305,0.49517 0.290673,0.90782 0.622871,1.23793 0.553663,0.44016 1.342633,0.78403 2.366909,1.03162 1.66099,0.22009 2.975939,0.34387 3.94485,0.37138 4.816868,0.27509 8.60946,0.41264 11.377776,0.41264 5.675046,0 10.201242,-0.4264 13.578586,-1.2792 3.377345,-0.88031 6.173343,-2.40709 8.387996,-4.58036 2.98978,-2.94353 4.48467,-6.60232 4.48467,-10.97635 0,-4.01642 -1.107326,-7.3726 -3.321978,-10.06854 -2.214652,-2.69595 -5.245957,-4.47032 -9.093916,-5.32312 2.851365,-1.1279 5.287483,-2.73722 7.308353,-4.82795 2.159286,-2.25579 3.238929,-5.15806 3.238929,-8.70681 0,-1.87066 -0.304515,-3.60377 -0.913544,-5.19933 -0.581347,-1.59556 -1.522574,-3.06733 -2.823682,-4.4153 -2.353068,-2.47587 -5.785779,-4.1127 -10.298133,-4.91048 -2.6299,-0.49517 -6.505541,-0.74276 -11.626924,-0.74276 z m 59.006642,0.74276 c -0.83049,0 -1.398,0.17882 -1.70251,0.53644 -0.27683,0.35763 -0.41525,1.03162 -0.41525,2.02196 v 54.758 c 0,0.77027 0.13842,1.34797 0.41525,1.73311 0.27683,0.38513 0.84434,0.5777 1.70251,0.5777 h 13.62011 c 1.41185,0 2.11777,-0.71525 2.11777,-2.14575 v -22.57169 h 10.96252 c 0.88587,0 1.48105,-0.13754 1.78557,-0.41264 0.3322,-0.2751 0.49829,-0.81154 0.49829,-1.60932 v -7.71646 c 0,-1.23793 -0.59518,-1.8569 -1.78556,-1.8569 h -11.46082 v -11.55406 h 13.86926 c 1.52257,0 2.28386,-0.72901 2.28386,-2.18702 v -7.55141 c 0,-1.34797 -0.78897,-2.02196 -2.36691,-2.02196 z M 74.592657,217.475 c 1.245742,0 2.297701,0.20632 3.155879,0.61897 2.10392,1.04536 3.15588,3.35618 3.15588,6.93243 0,3.24614 -0.816653,5.3919 -2.449959,6.43727 -1.467208,0.93532 -3.515761,1.40299 -6.14566,1.40299 v -15.2266 l 0.872019,-0.0825 c 0.276831,-0.055 0.747445,-0.0825 1.411841,-0.0825 z m 110.580363,5.57071 c -6.75469,0 -11.95913,2.24204 -15.6133,6.72611 -3.32198,4.12645 -4.98297,9.64214 -4.98297,16.54707 0,8.00531 2.02087,13.85112 6.06261,17.53741 3.87564,3.54875 8.56794,5.32312 14.07688,5.32312 5.28749,0 9.93826,-1.71935 13.95231,-5.15806 4.31858,-3.6863 6.47786,-9.5321 6.47786,-17.53742 0,-6.65733 -1.61946,-12.118 -4.85839,-16.382 -3.59881,-4.70416 -8.63715,-7.05623 -15.115,-7.05623 z m 24.45806,1.2792 c -0.47061,0 -0.88586,0.11004 -1.24574,0.33011 -0.35988,0.19257 -0.53982,0.50893 -0.53982,0.94909 0,0.27509 0.11073,0.70149 0.3322,1.2792 l 1.61946,3.1361 3.57113,6.396 c 2.68526,4.81419 4.73382,8.52799 6.14566,11.14141 l -9.59221,14.02993 -2.15929,3.42496 c -0.44293,0.71525 -0.6644,1.23793 -0.6644,1.56805 0,0.93533 0.62287,1.40299 1.86862,1.40299 h 9.42611 c 0.58135,0 1.02428,-0.0963 1.32879,-0.28885 0.30452,-0.19257 0.58135,-0.48142 0.8305,-0.86656 l 5.43974,-8.17037 3.90332,8.00532 c 0.44293,0.88031 1.28727,1.32046 2.53301,1.32046 h 13.53706 c 0.60903,0 1.05196,-0.11004 1.32879,-0.33011 0.30452,-0.22008 0.45677,-0.5502 0.45677,-0.99035 -0.13841,-0.44016 -0.45677,-1.11414 -0.95506,-2.02196 l -6.27024,-11.22395 c -2.43612,-4.31902 -4.16631,-7.45512 -5.19059,-9.40831 l 6.31176,-10.02727 3.44655,-5.32312 c 1.13501,-1.76062 1.70252,-2.80599 1.70252,-3.1361 0,-0.79778 -0.56751,-1.19667 -1.70252,-1.19667 h -8.72019 c -0.8305,0 -1.46721,0.39889 -1.91014,1.19667 l -5.60584,8.00531 -3.98637,-7.6752 c -0.52598,-1.01785 -1.34264,-1.52678 -2.44996,-1.52678 z m -25.1389,8.10417 c 0.10122,-0.007 0.2033,8.8e-4 0.30711,0.0249 2.21466,-0.2751 3.32198,4.00265 3.32198,12.83326 0,2.11824 -0.0554,3.9889 -0.1661,5.61197 -0.33219,5.06178 -1.43952,7.59267 -3.32198,7.59267 -2.02087,0 -3.0313,-3.81009 -3.0313,-11.43027 0,-6.29971 0.31836,-10.35739 0.95507,-12.17303 0.58134,-1.58868 1.22671,-2.40838 1.93522,-2.45953 z m -79.54495,0.54762 c -1.13501,0 -1.70251,0.59146 -1.70251,1.77437 v 7.51014 c 0,1.18292 0.59519,1.77437 1.78556,1.77437 h 16.07008 c 1.27342,0 1.91014,-0.59145 1.91014,-1.77437 v -7.51014 c 0,-1.18291 -0.59519,-1.77437 -1.78557,-1.77437 z m -30.193665,8.09816 c 1.886347,0.0812 3.50711,0.78402 4.863584,2.10792 1.57794,1.51304 2.36691,3.93389 2.36691,7.26256 0,2.36583 -0.553663,4.20898 -1.66099,5.52944 -1.190375,1.40299 -3.07283,2.06323 -5.647363,1.9807 l -1.328791,-0.0413 -1.038118,-0.0412 v -16.71212 l 0.70592,-0.0412 0.913544,-0.0412 c 0.280295,-0.0137 0.555829,-0.0151 0.825304,-0.004 z" /></g><g
     inkscape:groupmode="layer"
     id="layer2"
     inkscape:label="Layer 2"
     style="display:none"><text
       xml:space="preserve"
       style="font-style:normal;font-variant:normal;font-weight:normal;font-stretch:normal;font-size:192px;font-family:Mellow;-inkscape-font-specification:Mellow;text-align:start;writing-mode:lr-tb;direction:ltr;text-anchor:start;display:none;fill:#000000;stroke:none;stroke-width:1.64409"
       x="256.94788"
       y="623.42828"
       id="text17-9-4-1-9-4"
       inkscape:label="B-Fox Text"><tspan
         sodipodi:role="line"
         id="tspan17-8-5-0-5-3"
         x="0"
         y="0"
         style="font-style:normal;font-variant:normal;font-weight:normal;font-stretch:normal;font-size:192px;font-family:Mellow;-inkscape-font-specification:Mellow;stroke:none">B-Fox</tspan></text></g></svg>
